<svg version="1.1" xmlns="http://www.w3.org/2000/svg" viewBox="0 0 317.17240539550784 304" width="634.3448107910157" height="608">
  <!-- svg-source:excalidraw -->
  
  <defs>
    <style class="style-fonts">
      @font-face {
        font-family: "Virgil 3 YOFF 3 YOFF 3 YOFF 3 YOFF 3 YOFF 3 YOFF 3 YOFF 3 YOFF 3 YOFF";
        src: url("https://excalidraw.com/Virgil 3 YOFF 3 YOFF 3 YOFF 3 YOFF 3 YOFF 3 YOFF 3 YOFF 3 YOFF 3 YOFF.woff2");
      }
      @font-face {
        font-family: "Cascadia";
        src: url("https://excalidraw.com/Cascadia.woff2");
      }
      @font-face {
        font-family: "Assistant";
        src: url("https://excalidraw.com/Assistant-Regular.woff2");
      }
    </style>
    
  </defs>
  <rect x="0" y="0" width="317.17240539550784" height="304" fill="#ffffff"></rect><g stroke-linecap="round" transform="translate(190.61240020751956 40) rotate(314.61803379527095 10.5 97.5)"><path d="M5.25 0 C7.83 0.14, 11.28 -0.91, 15.75 0 M5.25 0 C9.68 0.58, 13.65 0.53, 15.75 0 M15.75 0 C18.85 -1.78, 20.56 3.1, 21 5.25 M15.75 0 C21.19 0.48, 21.45 1.07, 21 5.25 M21 5.25 C20.77 50.7, 20.03 97.39, 21 189.75 M21 5.25 C22.45 74.27, 20.89 141.93, 21 189.75 M21 189.75 C21.22 194.83, 20.39 196.01, 15.75 195 M21 189.75 C18.84 192.35, 17.67 195.95, 15.75 195 M15.75 195 C14.6 194.6, 10.48 193.94, 5.25 195 M15.75 195 C12.29 194.88, 8.96 194.87, 5.25 195 M5.25 195 C3.13 194.18, -1.42 191.27, 0 189.75 M5.25 195 C-0.14 196.29, -2.04 195.17, 0 189.75 M0 189.75 C1.39 124.9, 2.25 59.94, 0 5.25 M0 189.75 C0.48 153.13, -0.82 114.48, 0 5.25 M0 5.25 C-0.37 1.3, 1.15 0.39, 5.25 0 M0 5.25 C-1.69 0.49, 1.39 -1.39, 5.25 0" stroke="#1e1e1e" stroke-width="2" fill="none"></path></g><g stroke-linecap="round" transform="translate(15.612400207519542 161) rotate(15.94539590092286 37 12.5)"><path d="M6.25 0 C32.01 -0.46, 54.51 -0.27, 67.75 0 M6.25 0 C21.94 1.04, 40.28 -0.13, 67.75 0 M67.75 0 C73.86 -0.89, 73.36 1.53, 74 6.25 M67.75 0 C69.73 2.23, 72.41 2, 74 6.25 M74 6.25 C73.74 10.78, 74.11 16.08, 74 18.75 M74 6.25 C73.55 9.84, 73.77 12.91, 74 18.75 M74 18.75 C73.28 23.42, 71.98 24.68, 67.75 25 M74 18.75 C75.26 22.88, 71.46 24.55, 67.75 25 M67.75 25 C47.88 26, 32.48 25.3, 6.25 25 M67.75 25 C47.87 25.66, 26.03 24.38, 6.25 25 M6.25 25 C4.04 24.8, -1.21 22.89, 0 18.75 M6.25 25 C2.81 26.85, -1.69 22.63, 0 18.75 M0 18.75 C1.08 15.84, -0.02 10.35, 0 6.25 M0 18.75 C0.16 14.61, -0.21 10.38, 0 6.25 M0 6.25 C-2 0.31, 2.33 -0.73, 6.25 0 M0 6.25 C-0.24 3.01, 2.75 0.75, 6.25 0" stroke="#1e1e1e" stroke-width="2" fill="none"></path></g><g stroke-linecap="round" transform="translate(18.612400207519542 168) rotate(13.421835067886201 4.5 13)"><path d="M2.25 0 C3.89 0.02, 4.95 0.14, 6.75 0 M2.25 0 C3.2 0.03, 4.18 0.09, 6.75 0 M6.75 0 C8.96 0.02, 8.24 0.33, 9 2.25 M6.75 0 C8.75 1.14, 8.42 0.02, 9 2.25 M9 2.25 C9.78 8.59, 8.5 14.4, 9 23.75 M9 2.25 C9.37 7.07, 8.6 11.26, 9 23.75 M9 23.75 C9.64 25.46, 8.44 25.37, 6.75 26 M9 23.75 C8.63 25.07, 8.36 25.78, 6.75 26 M6.75 26 C5.49 26.18, 3.69 26.14, 2.25 26 M6.75 26 C5.44 26, 3.84 26.11, 2.25 26 M2.25 26 C0.21 25.39, 0.13 24.64, 0 23.75 M2.25 26 C0.85 25.69, 0.69 24.82, 0 23.75 M0 23.75 C0.37 18.01, -0.89 13.3, 0 2.25 M0 23.75 C-0.3 18.3, -0.28 11.68, 0 2.25 M0 2.25 C0.61 0.81, 0 0.61, 2.25 0 M0 2.25 C-0.7 1.62, 0.91 -0.33, 2.25 0" stroke="#1e1e1e" stroke-width="2" fill="none"></path></g><g stroke-linecap="round" transform="translate(205.32324599307077 78.41218384428015) rotate(315.2229396511975 6.789154214448786 74.08781615571982)"><path d="M6.79 0.13 C7.95 -0.6, 9.79 4.79, 10.71 11.25 C11.64 17.72, 11.83 28.22, 12.32 38.94 C12.81 49.65, 13.58 63.16, 13.65 75.53 C13.72 87.9, 13.35 102.61, 12.75 113.16 C12.14 123.71, 10.97 133.04, 10.02 138.82 C9.08 144.61, 8.28 148.12, 7.1 147.89 C5.92 147.65, 4.04 143.77, 2.95 137.39 C1.85 131.01, 1.04 120.39, 0.52 109.59 C0.01 98.79, -0.18 84.98, -0.13 72.57 C-0.09 60.16, 0.24 45.64, 0.81 35.13 C1.37 24.62, 2.17 15.41, 3.25 9.51 C4.33 3.6, 6.68 1.04, 7.27 -0.31 C7.86 -1.66, 6.85 0.06, 6.8 1.4 M7.06 -0.3 C8.28 -0.4, 10.27 6.26, 11.16 13.55 C12.04 20.83, 12.06 32.11, 12.38 43.4 C12.71 54.69, 13.08 69.11, 13.09 81.29 C13.1 93.48, 12.95 106.55, 12.45 116.52 C11.94 126.49, 11.18 135.78, 10.06 141.11 C8.94 146.43, 6.93 149.5, 5.72 148.49 C4.52 147.47, 3.71 142.18, 2.83 135.01 C1.95 127.84, 0.97 116.74, 0.44 105.48 C-0.09 94.23, -0.58 79.85, -0.37 67.49 C-0.17 55.13, 0.93 41.4, 1.68 31.33 C2.42 21.26, 3.03 12.38, 4.09 7.09 C5.16 1.8, 7.6 0.41, 8.06 -0.4 C8.52 -1.21, 6.97 0.77, 6.88 2.23" stroke="#1e1e1e" stroke-width="2" fill="none"></path></g><g stroke-linecap="round" transform="translate(109.61240020751954 69) rotate(44.21517539700811 7 25)"><path d="M3.5 0 C5.47 -0.3, 7.36 0.14, 10.5 0 M3.5 0 C6.11 0.06, 8.85 0.12, 10.5 0 M10.5 0 C13.37 0.66, 14.11 1.87, 14 3.5 M10.5 0 C13.24 0.58, 15.12 1.37, 14 3.5 M14 3.5 C14.5 18.86, 13.49 35.02, 14 46.5 M14 3.5 C14.62 13.87, 13.85 24.37, 14 46.5 M14 46.5 C13.35 49.21, 12.07 50, 10.5 50 M14 46.5 C14.33 48.22, 12.33 49.86, 10.5 50 M10.5 50 C8.75 49.98, 6.48 49.68, 3.5 50 M10.5 50 C7.96 50.16, 5.24 50.07, 3.5 50 M3.5 50 C1.58 49.92, 0.59 47.94, 0 46.5 M3.5 50 C0.03 49.74, -0.46 49.91, 0 46.5 M0 46.5 C-0.23 36.5, -0.26 26.05, 0 3.5 M0 46.5 C0.24 37.35, 0.06 27.98, 0 3.5 M0 3.5 C-0.16 0.48, 1.01 -0.8, 3.5 0 M0 3.5 C-0.48 0.45, 1.63 0.89, 3.5 0" stroke="#1e1e1e" stroke-width="2" fill="none"></path></g><g stroke-linecap="round" transform="translate(129.60416926680853 91.0202626641651) rotate(44.21517539700811 7.029056456658481 25)"><path d="M3.51 0 C5.16 0.12, 6.53 0.04, 10.54 0 M3.51 0 C5.45 -0.1, 7.38 0.04, 10.54 0 M10.54 0 C12.34 -0.01, 14.77 0.43, 14.06 3.51 M10.54 0 C13.76 0.19, 13.1 0.54, 14.06 3.51 M14.06 3.51 C13.66 13.77, 14.1 22.3, 14.06 46.49 M14.06 3.51 C14.58 18.57, 14.46 32.78, 14.06 46.49 M14.06 46.49 C14.85 49.47, 12.79 49.28, 10.54 50 M14.06 46.49 C13.96 48.7, 13.57 49.36, 10.54 50 M10.54 50 C9.24 49.81, 7.19 49.71, 3.51 50 M10.54 50 C8.58 50, 7.02 49.91, 3.51 50 M3.51 50 C0.57 49.04, 0.66 48.28, 0 46.49 M3.51 50 C2.17 50.45, -0.05 49.49, 0 46.49 M0 46.49 C0.08 32.68, -0.12 18, 0 3.51 M0 46.49 C0.52 32.48, 0.59 17.84, 0 3.51 M0 3.51 C-0.03 0.75, 1.43 -0.36, 3.51 0 M0 3.51 C0.19 2.11, 2 0.13, 3.51 0" stroke="#1e1e1e" stroke-width="2" fill="none"></path></g><g stroke-linecap="round" transform="translate(138.61240020751956 65) rotate(321.65442504600657 6.5 18.5)"><path d="M3.25 0 C5.66 -0.54, 8.7 0.81, 9.75 0 C9.34 -0.4, 11.29 2.44, 13 3.25 C10.76 14.17, 14.49 26.87, 13 33.75 C11.06 36.13, 11.03 38.89, 9.75 37 C8.48 37.28, 6.47 36.58, 3.25 37 C-0.12 39.27, 0.03 37.68, 0 33.75 C1.3 27.44, 0.87 21.89, 0 3.25 C2.12 0.48, -0.63 -0.82, 3.25 0" stroke="none" stroke-width="0" fill="#ffc9c9"></path><path d="M3.25 0 C5.14 0.15, 6.8 0.2, 9.75 0 M3.25 0 C5.36 -0.11, 7.6 0.09, 9.75 0 M9.75 0 C11.69 0.13, 12.27 0.51, 13 3.25 M9.75 0 C11.46 0.7, 12.91 0.98, 13 3.25 M13 3.25 C12.9 13.1, 12.26 21.48, 13 33.75 M13 3.25 C12.87 14.14, 13.4 25.47, 13 33.75 M13 33.75 C12.93 35.88, 12.32 36.01, 9.75 37 M13 33.75 C13.25 36.53, 10.89 37, 9.75 37 M9.75 37 C6.95 36.98, 4.57 37.29, 3.25 37 M9.75 37 C7.48 37, 5.09 36.87, 3.25 37 M3.25 37 C1.02 37.98, -0.36 35.56, 0 33.75 M3.25 37 C1.32 38.15, 0.5 35.61, 0 33.75 M0 33.75 C0.26 25.67, -0.17 15.33, 0 3.25 M0 33.75 C0.37 22.41, 0.21 11.43, 0 3.25 M0 3.25 C0.52 1.07, 1.86 -0.7, 3.25 0 M0 3.25 C-0.91 0.85, 0.25 0.41, 3.25 0" stroke="#e03131" stroke-width="2" fill="none"></path></g><g stroke-linecap="round" transform="translate(47.61240020751954 179) rotate(0 27 25.5)"><path d="M15.55 2.41 C20.27 -0.13, 28.38 -0.52, 33.85 0.8 C39.33 2.12, 44.93 5.85, 48.4 10.34 C51.87 14.84, 54.85 22.28, 54.69 27.77 C54.52 33.26, 51.64 39.57, 47.41 43.28 C43.18 46.98, 35.16 49.5, 29.32 50 C23.48 50.49, 16.95 49.07, 12.36 46.25 C7.77 43.43, 3.35 38.09, 1.76 33.07 C0.18 28.04, -0.06 21.53, 2.86 16.1 C5.77 10.68, 15.56 3.07, 19.25 0.54 C22.95 -1.98, 24.71 0.38, 25.04 0.96 M28.65 0.6 C33.92 1, 42.3 3.54, 46.64 7.29 C50.98 11.04, 54.53 17.72, 54.68 23.1 C54.82 28.49, 50.83 35.08, 47.51 39.62 C44.18 44.16, 40.34 48.96, 34.72 50.36 C29.11 51.75, 19.19 50.29, 13.81 47.99 C8.43 45.69, 4.81 41.45, 2.45 36.54 C0.08 31.63, -2.06 23.74, -0.36 18.53 C1.35 13.32, 7.45 8.25, 12.65 5.28 C17.86 2.3, 28.09 1.4, 30.87 0.67 C33.66 -0.06, 29.56 0.63, 29.35 0.9" stroke="#1e1e1e" stroke-width="2" fill="none"></path></g><g stroke-linecap="round" transform="translate(107.61240020751954 180) rotate(0 26.5 25.5)"><path d="M23.83 1.06 C28.83 -0.18, 35.06 0.72, 39.81 3.33 C44.56 5.95, 50.54 11.39, 52.33 16.74 C54.11 22.08, 52.69 30.28, 50.51 35.41 C48.34 40.53, 44.2 45.1, 39.27 47.47 C34.34 49.84, 26.58 50.59, 20.92 49.61 C15.26 48.64, 8.86 45.95, 5.32 41.61 C1.79 37.28, -0.42 29.25, -0.28 23.6 C-0.14 17.95, 1.72 11.82, 6.16 7.72 C10.59 3.62, 22.17 0, 26.34 -0.98 C30.52 -1.96, 31.13 1.33, 31.19 1.83 M17.17 0.9 C21.77 -1.15, 28.43 0.79, 33.79 2.33 C39.15 3.87, 46.19 5.79, 49.33 10.15 C52.47 14.52, 53.36 22.91, 52.64 28.51 C51.92 34.12, 49.01 39.88, 45.03 43.81 C41.05 47.73, 34.71 51.77, 28.75 52.05 C22.79 52.33, 14.04 48.87, 9.3 45.48 C4.56 42.09, 1.38 37.16, 0.3 31.71 C-0.77 26.27, 0.43 17.64, 2.85 12.81 C5.28 7.99, 12.38 4.52, 14.86 2.75 C17.35 0.98, 17.6 1.77, 17.77 2.21" stroke="#1e1e1e" stroke-width="2" fill="none"></path></g><g stroke-linecap="round" transform="translate(219.61240020751956 185) rotate(0 26.5 25.5)"><path d="M19.65 0.99 C24.73 -0.69, 31.91 0.27, 37.16 2.4 C42.42 4.52, 48.63 8.97, 51.2 13.74 C53.77 18.52, 54.21 25.79, 52.59 31.03 C50.96 36.27, 46.15 41.75, 41.47 45.16 C36.78 48.57, 30 51.73, 24.49 51.48 C18.98 51.22, 12.32 47.47, 8.42 43.62 C4.51 39.77, 1.89 33.83, 1.07 28.35 C0.26 22.87, 0.32 15.45, 3.51 10.74 C6.71 6.03, 17.11 1.65, 20.24 0.11 C23.38 -1.43, 22.06 1.04, 22.32 1.48 M35.7 1.45 C40.55 2.97, 44.97 6.81, 47.99 11.62 C51.01 16.43, 54.29 24.63, 53.82 30.31 C53.35 36, 49.41 42.45, 45.15 45.73 C40.89 49.01, 33.97 50.34, 28.26 50.02 C22.55 49.69, 15.41 46.93, 10.88 43.78 C6.34 40.64, 2.12 36.17, 1.05 31.12 C-0.01 26.08, 1.98 18.5, 4.48 13.52 C6.99 8.54, 10.72 3.21, 16.08 1.25 C21.44 -0.71, 33.61 1.42, 36.66 1.76 C39.71 2.11, 34.57 3.09, 34.36 3.32" stroke="#1e1e1e" stroke-width="2" fill="none"></path></g><g stroke-linecap="round" transform="translate(166.61240020751956 182) rotate(0 26.5 25.5)"><path d="M23.97 -0.61 C29.5 -1.11, 38.02 2.35, 42.88 5.54 C47.73 8.74, 51.94 13.44, 53.09 18.56 C54.25 23.69, 52.52 31.39, 49.8 36.3 C47.07 41.21, 41.94 45.57, 36.75 48 C31.55 50.42, 24.1 52.1, 18.64 50.87 C13.18 49.63, 7.11 45.33, 3.98 40.56 C0.85 35.8, -0.88 27.65, -0.14 22.25 C0.6 16.85, 3.79 11.77, 8.43 8.16 C13.06 4.56, 24.04 1.86, 27.66 0.62 C31.29 -0.62, 30.36 0.46, 30.16 0.72 M38.3 3.55 C43.4 5.49, 46.8 9.04, 49.24 13.72 C51.68 18.41, 54.14 26.48, 52.94 31.68 C51.74 36.87, 46.65 41.64, 42.03 44.88 C37.41 48.13, 30.6 51.15, 25.22 51.16 C19.84 51.16, 14.15 48.47, 9.76 44.92 C5.36 41.38, -0.47 35.28, -1.15 29.9 C-1.84 24.53, 2.18 17.35, 5.65 12.67 C9.11 8, 14.38 3.55, 19.65 1.84 C24.92 0.14, 34.25 2.46, 37.27 2.42 C40.3 2.38, 38.23 1.41, 37.79 1.6" stroke="#1e1e1e" stroke-width="2" fill="none"></path></g><g stroke-linecap="round" transform="translate(105.61240020751954 197) rotate(0 38.5 9)"><path d="M4.5 0 C27.41 -3.35, 57.04 -2.45, 72.5 0 C77.73 0.79, 79.39 3.92, 77 4.5 C77.55 7.95, 77.91 9.35, 77 13.5 C80.54 12.96, 72.15 19.04, 72.5 18 C49.84 15.71, 28.68 21.99, 4.5 18 C1.65 15.25, -0.79 16.99, 0 13.5 C0.76 11.4, 1.05 7.6, 0 4.5 C-1.54 2.04, 1.17 -1.02, 4.5 0" stroke="none" stroke-width="0" fill="#b2f2bb"></path><path d="M4.5 0 C22.91 -0.95, 45.87 0.21, 72.5 0 M4.5 0 C29.67 1.14, 52.94 0.1, 72.5 0 M72.5 0 C74.27 -0.27, 75.57 3.23, 77 4.5 M72.5 0 C76.28 -2.16, 76.4 0.74, 77 4.5 M77 4.5 C76.49 7.5, 77.43 10.57, 77 13.5 M77 4.5 C77.17 7.7, 76.73 10.32, 77 13.5 M77 13.5 C75.55 16.82, 76.12 19.37, 72.5 18 M77 13.5 C78.31 17.54, 75.59 16.18, 72.5 18 M72.5 18 C49.59 20.26, 25.86 17.92, 4.5 18 M72.5 18 C55.92 17.26, 37.88 17.92, 4.5 18 M4.5 18 C2.45 19.71, -1.89 17.1, 0 13.5 M4.5 18 C-0.05 17.42, -0.94 17.55, 0 13.5 M0 13.5 C-0.74 11.84, -0.72 8.51, 0 4.5 M0 13.5 C0.22 11.77, -0.45 10.24, 0 4.5 M0 4.5 C-0.73 2.91, 0.87 1.33, 4.5 0 M0 4.5 C0.27 0.95, 1.72 1.68, 4.5 0" stroke="#2f9e44" stroke-width="2" fill="none"></path></g><g stroke-linecap="round" transform="translate(105.61240020751954 175) rotate(0 37.5 7.5)"><path d="M3.75 0 C20.54 1.87, 40.33 0.58, 71.25 0 C74.78 -3.48, 76.8 -1.9, 75 3.75 C76.1 6.29, 75.27 8.58, 75 11.25 C77.78 10.86, 74.47 13.69, 71.25 15 C47.51 17.26, 28 14.45, 3.75 15 C1.14 16.39, 1.55 14.6, 0 11.25 C0.62 9.46, 0.55 7.23, 0 3.75 C-1.98 -2.12, 2.15 1.35, 3.75 0" stroke="none" stroke-width="0" fill="#a5d8ff"></path><path d="M3.75 0 C25.36 -1.71, 48.35 1.04, 71.25 0 M3.75 0 C23.23 0.81, 39.9 0.77, 71.25 0 M71.25 0 C71.86 1.43, 76.65 0.33, 75 3.75 M71.25 0 C75.85 2.19, 74.93 -0.46, 75 3.75 M75 3.75 C75.35 5.71, 75.75 6.82, 75 11.25 M75 3.75 C74.79 6.02, 75.15 8.34, 75 11.25 M75 11.25 C74.21 12.72, 73.46 13.83, 71.25 15 M75 11.25 C74.57 11.92, 72.36 13.48, 71.25 15 M71.25 15 C54.11 15, 39.95 14.44, 3.75 15 M71.25 15 C55.52 14.04, 39.22 14.24, 3.75 15 M3.75 15 C1.27 15.98, -0.92 15.43, 0 11.25 M3.75 15 C0.79 14.65, -0.16 13.03, 0 11.25 M0 11.25 C0.13 8.1, -0.63 5.73, 0 3.75 M0 11.25 C-0.17 8.92, -0.23 6.09, 0 3.75 M0 3.75 C-1.26 1.64, 1.55 0.33, 3.75 0 M0 3.75 C2.22 3.42, -0.72 2.15, 3.75 0" stroke="#1971c2" stroke-width="2" fill="none"></path></g><g stroke-linecap="round" transform="translate(45.61240020751954 191) rotate(0 116 14)"><path d="M7 0 C71.08 -2.21, 132.96 -0.78, 225 0 M7 0 C92.65 0.62, 176.6 0.41, 225 0 M225 0 C230.97 1.06, 233.52 0.56, 232 7 M225 0 C228.74 -1.78, 231.06 1.71, 232 7 M232 7 C232.57 10.87, 232.79 18.47, 232 21 M232 7 C231.95 10.08, 231.3 13.42, 232 21 M232 21 C233.41 25.27, 231.25 28.41, 225 28 M232 21 C229.92 26.56, 228.71 25.7, 225 28 M225 28 C153.55 26.95, 79.42 28.13, 7 28 M225 28 C159.69 28.04, 94.33 28.27, 7 28 M7 28 C4.14 29.04, 0.38 24.07, 0 21 M7 28 C1.91 28.9, 1.91 24.48, 0 21 M0 21 C0.28 16.5, 1.18 11.82, 0 7 M0 21 C0.43 16.18, -0.42 12.24, 0 7 M0 7 C0.99 1.27, 3.25 0.68, 7 0 M0 7 C-1.45 3.65, 2.06 0.65, 7 0" stroke="#1e1e1e" stroke-width="2" fill="none"></path></g><g transform="translate(149.61240020751956 10) rotate(0 26.87000274658203 12.5)"><text x="0" y="17.52" font-family="Virgil 3 YOFF 3 YOFF 3 YOFF 3 YOFF 3 YOFF 3 YOFF 3 YOFF 3 YOFF 3 YOFF, Segoe UI Emoji" font-size="20px" fill="#1e1e1e" text-anchor="start" style="white-space: pre;" direction="ltr" dominant-baseline="alphabetic">Radio</text></g><g transform="translate(155.61240020751956 269) rotate(0 39.69999694824219 12.5)"><text x="0" y="17.52" font-family="Virgil 3 YOFF 3 YOFF 3 YOFF 3 YOFF 3 YOFF 3 YOFF 3 YOFF 3 YOFF 3 YOFF, Segoe UI Emoji" font-size="20px" fill="#1e1e1e" text-anchor="start" style="white-space: pre;" direction="ltr" dominant-baseline="alphabetic">Battery</text></g><g transform="translate(102.61240020751954 144) rotate(0 25.100000381469727 12.5)"><text x="0" y="17.52" font-family="Virgil 3 YOFF 3 YOFF 3 YOFF 3 YOFF 3 YOFF 3 YOFF 3 YOFF 3 YOFF 3 YOFF, Segoe UI Emoji" font-size="20px" fill="#1e1e1e" text-anchor="start" style="white-space: pre;" direction="ltr" dominant-baseline="alphabetic">Brain</text></g><g transform="translate(10 36) rotate(0 49.43000030517579 12.5)"><text x="0" y="17.52" font-family="Virgil 3 YOFF 3 YOFF 3 YOFF 3 YOFF 3 YOFF 3 YOFF 3 YOFF 3 YOFF 3 YOFF, Segoe UI Emoji" font-size="20px" fill="#1e1e1e" text-anchor="start" style="white-space: pre;" direction="ltr" dominant-baseline="alphabetic">Climb mech</text></g><g transform="translate(241.61240020751956 99) rotate(0 32.78000259399414 12.5)"><text x="0" y="17.52" font-family="Virgil 3 YOFF 3 YOFF 3 YOFF 3 YOFF 3 YOFF 3 YOFF 3 YOFF 3 YOFF 3 YOFF, Segoe UI Emoji" font-size="20px" fill="#1e1e1e" text-anchor="start" style="white-space: pre;" direction="ltr" dominant-baseline="alphabetic">Intake</text></g><g transform="translate(14.612400207519542 124) rotate(0 23.75 12.5)"><text x="0" y="17.52" font-family="Virgil 3 YOFF 3 YOFF 3 YOFF 3 YOFF 3 YOFF 3 YOFF 3 YOFF 3 YOFF 3 YOFF, Segoe UI Emoji" font-size="20px" fill="#1e1e1e" text-anchor="start" style="white-space: pre;" direction="ltr" dominant-baseline="alphabetic">Mogo</text></g><g stroke-linecap="round"><g transform="translate(175.61240020751956 50) rotate(0 -6 10.5)"><path d="M-0.23 0.3 C-2.3 3.89, -10.15 17.92, -12.04 21.31 M0.65 -0.02 C-1.52 3.43, -10.43 16.99, -12.49 20.5" stroke="#1e1e1e" stroke-width="2" fill="none"></path></g><g transform="translate(175.61240020751956 50) rotate(0 -6 10.5)"><path d="M-9.97 8.68 C-10.58 12.94, -11.49 17.76, -12.49 20.5 M-9.97 8.68 C-10.65 11.47, -11.32 14.59, -12.49 20.5" stroke="#1e1e1e" stroke-width="2" fill="none"></path></g><g transform="translate(175.61240020751956 50) rotate(0 -6 10.5)"><path d="M-2.96 13.06 C-6.12 15.71, -9.58 18.94, -12.49 20.5 M-2.96 13.06 C-5.32 14.81, -7.66 16.88, -12.49 20.5" stroke="#1e1e1e" stroke-width="2" fill="none"></path></g></g><mask></mask><g stroke-linecap="round"><g transform="translate(275.61240020751956 128) rotate(0 -18 5)"><path d="M-0.13 0.44 C-6.07 2.28, -30.22 9.02, -36.15 10.53 M0.81 0.19 C-5.18 1.94, -30.54 8.22, -36.66 9.84" stroke="#1e1e1e" stroke-width="2" fill="none"></path></g><g transform="translate(275.61240020751956 128) rotate(0 -18 5)"><path d="M-21.23 -0.69 C-23.81 1.26, -26.93 4.18, -36.66 9.84 M-21.23 -0.69 C-24.98 1.57, -27.41 3.88, -36.66 9.84" stroke="#1e1e1e" stroke-width="2" fill="none"></path></g><g transform="translate(275.61240020751956 128) rotate(0 -18 5)"><path d="M-18.07 11.69 C-21.26 11.01, -25.05 11.31, -36.66 9.84 M-18.07 11.69 C-22.5 11.31, -25.61 10.97, -36.66 9.84" stroke="#1e1e1e" stroke-width="2" fill="none"></path></g></g><mask></mask><g stroke-linecap="round"><g transform="translate(175.61240020751956 256) rotate(0 -4 -16.5)"><path d="M-0.24 -0.27 C-1.58 -5.84, -6.54 -27.6, -7.83 -33.11 M0.63 0.78 C-0.77 -4.73, -6.68 -26.85, -8.17 -32.46" stroke="#1e1e1e" stroke-width="2" fill="none"></path></g><g transform="translate(175.61240020751956 256) rotate(0 -4 -16.5)"><path d="M1.54 -18.54 C-2.12 -22.89, -5.07 -27.72, -8.17 -32.46 M1.54 -18.54 C-0.52 -21.66, -3.43 -25.6, -8.17 -32.46" stroke="#1e1e1e" stroke-width="2" fill="none"></path></g><g transform="translate(175.61240020751956 256) rotate(0 -4 -16.5)"><path d="M-9.68 -15.55 C-9.65 -20.86, -8.89 -26.68, -8.17 -32.46 M-9.68 -15.55 C-9.03 -19.4, -9.22 -24.07, -8.17 -32.46" stroke="#1e1e1e" stroke-width="2" fill="none"></path></g></g><mask></mask><g stroke-linecap="round"><g transform="translate(77.61240020751954 63) rotate(0 10 11)"><path d="M0.11 0.1 C3.4 3.53, 16.38 17.63, 19.6 21.35 M-1.29 -0.89 C1.81 2.61, 15.16 19.01, 18.45 22.54" stroke="#1e1e1e" stroke-width="2" fill="none"></path></g><g transform="translate(77.61240020751954 63) rotate(0 10 11)"><path d="M5.48 15.27 C9.43 16.88, 12.26 18.82, 18.45 22.54 M5.48 15.27 C10.09 18.34, 14.02 20.72, 18.45 22.54" stroke="#1e1e1e" stroke-width="2" fill="none"></path></g><g transform="translate(77.61240020751954 63) rotate(0 10 11)"><path d="M13.19 8.64 C14.94 12.19, 15.53 16.05, 18.45 22.54 M13.19 8.64 C15.27 13.94, 16.63 18.53, 18.45 22.54" stroke="#1e1e1e" stroke-width="2" fill="none"></path></g></g><mask></mask></svg>