<?xml version="1.0" encoding="UTF-8"?>
<svg xmlns="http://www.w3.org/2000/svg" version="1.1" viewBox="0 0 800 800">
  <defs>
    <style>
      .cls-1 {
        stroke: #000;
      }

      .cls-1, .cls-2 {
        fill: none;
        stroke-linecap: round;
        stroke-linejoin: round;
        stroke-width: 66.7px;
      }

      .cls-2 {
        stroke: #cddc39;
      }
    </style>
  </defs>
  <!-- Generator: Adobe Illustrator 28.6.0, SVG Export Plug-In . SVG Version: 1.2.0 Build 709)  -->
  <g>
    <g id="Layer_1_copy">
      <path class="cls-2" d="M273.3,760c-43.9,0-70.4,0-97.5-13.8-24-12.2-43.1-31.4-55.4-55.4-13.8-27.1-13.8-53.6-13.8-97.5v-320c0-43.9,0-70.4,13.8-97.5,12.2-24,31.4-43.1,55.4-55.4,13.2-6.7,26.7-10.2,41.2-11.9,5.7-12.6,13.7-24.2,23.8-34.3,22.1-22.1,51.4-34.2,82.7-34.2h152.9c31.2,0,60.6,12.2,82.7,34.2,10.1,10.1,18.1,21.7,23.8,34.3,14.5,1.8,28,5.2,41.2,11.9,24,12.2,43.1,31.4,55.4,55.4,13.8,27.1,13.8,53.6,13.8,97.5v320c0,43.9,0,70.4-13.8,97.5-12.2,24-31.4,43.1-55.4,55.4-27.1,13.8-53.6,13.8-97.5,13.8h-253.3Z"/>
      <path class="cls-2" d="M626.1,203.1c-6.4-12.5-16.6-22.7-29.1-29.1-13.4-6.8-30.7-7.2-63.6-7.3v-9.8c0-15.1-6-29.6-16.7-40.2-10.7-10.7-25.1-16.7-40.2-16.7h-152.9c-15.1,0-29.6,6-40.2,16.7s-16.7,25.1-16.7,40.2v9.8c-32.9,0-50.2.4-63.6,7.3-12.5,6.4-22.7,16.6-29.1,29.1-7.3,14.3-7.3,32.9-7.3,70.3v320c0,37.3,0,56,7.3,70.3,6.4,12.5,16.6,22.7,29.1,29.1,14.3,7.3,32.9,7.3,70.3,7.3h253.3c37.3,0,56,0,70.3-7.3,12.5-6.4,22.7-16.6,29.1-29.1,7.3-14.3,7.3-32.9,7.3-70.3v-320c0-37.3,0-56-7.3-70.3Z"/>
    </g>
    <g id="Layer_1">
      <path class="cls-1" d="M266.7,166.7c-32.9,0-50.2.4-63.6,7.3-12.5,6.4-22.7,16.6-29.1,29.1-7.3,14.3-7.3,32.9-7.3,70.3v320c0,37.3,0,56,7.3,70.3,6.4,12.5,16.6,22.7,29.1,29.1,14.3,7.3,32.9,7.3,70.3,7.3h253.3c37.3,0,56,0,70.3-7.3,12.5-6.4,22.7-16.6,29.1-29.1,7.3-14.3,7.3-32.9,7.3-70.3v-320c0-37.3,0-56-7.3-70.3-6.4-12.5-16.6-22.7-29.1-29.1-13.4-6.8-30.7-7.2-63.6-7.3M266.7,166.7v66.7h266.7v-66.7M266.7,166.7v-9.8c0-15.1,6-29.6,16.7-40.2s25.1-16.7,40.2-16.7h152.9c15.1,0,29.6,6,40.2,16.7s16.7,25.1,16.7,40.2v9.8M500,400h-100M500,533.3h-100M300,400h.3M300,533.3h.3"/>
    </g>
  </g>
</svg>